<?xml version="1.0" encoding="UTF-8" standalone="no"?>
<!-- Created with Inkscape (http://www.inkscape.org/) -->

<svg
   width="1920"
   height="500"
   viewBox="0 0 507.99999 132.29167"
   version="1.1"
   id="svg1"
   inkscape:version="1.4 (e7c3feb100, 2024-10-09)"
   sodipodi:docname="contact-bottom.svg"
   xmlns:inkscape="http://www.inkscape.org/namespaces/inkscape"
   xmlns:sodipodi="http://sodipodi.sourceforge.net/DTD/sodipodi-0.dtd"
   xmlns="http://www.w3.org/2000/svg"
   xmlns:svg="http://www.w3.org/2000/svg">
  <sodipodi:namedview
     id="namedview1"
     pagecolor="#ffffff"
     bordercolor="#000000"
     borderopacity="0.25"
     inkscape:showpageshadow="2"
     inkscape:pageopacity="0.0"
     inkscape:pagecheckerboard="0"
     inkscape:deskcolor="#d1d1d1"
     inkscape:document-units="mm"
     inkscape:zoom="0.49575348"
     inkscape:cx="1109.4224"
     inkscape:cy="664.64486"
     inkscape:window-width="1920"
     inkscape:window-height="1015"
     inkscape:window-x="0"
     inkscape:window-y="0"
     inkscape:window-maximized="1"
     inkscape:current-layer="layer1" />
  <defs
     id="defs1" />
  <g
     inkscape:label="Layer 1"
     inkscape:groupmode="layer"
     id="layer1">
    <path
       style="fill:#383609;fill-opacity:1;fill-rule:evenodd;stroke-width:0.264583"
       d="m 507.01442,9.0728897 c -23.48276,-0.5336999 -43.76333,2.1347973 -54.97103,15.4772823 -11.2077,13.342485 -28.28607,11.207688 -44.83075,8.539191 -16.54469,-2.668498 -28.81977,3.735895 -41.62855,13.342484 -8.24596,6.184469 -22.41538,15.477281 -32.55567,11.207687 -10.14029,-4.269594 -29.88718,-14.943582 -43.22964,1.067401 -13.34248,16.010979 -26.68498,18.145778 -35.75787,14.409882 -9.07289,-3.735895 -50.70144,-20.280576 -59.24063,-3.202196 -8.53919,17.07838 -25.08387,7.471791 -33.08936,21.881674 -8.00549,14.409885 -13.37466,20.418325 -38.42636,14.943585 -18.69374,-4.08528 -45.898146,-13.342485 -65.111326,-5.337 -24.459248,10.19135 -37.411622,8.53014 -46.965546,17.07839 -10.1402884,9.07288 -12.808787,16.01098 -18.14578,27.75236 -5.336995,11.74139 157.441322,17.07839 157.441322,17.07839 L 499.00892,144.09884 557.71586,126.48676 558.24955,36.825258 527.295,5.336994 Z"
       id="path1"
       sodipodi:nodetypes="csssssssssssscccccc" />
  </g>
</svg>
